<svg width="24" height="24" viewBox="0 0 16 16" fill="none" xmlns="http://www.w3.org/2000/svg">
    <g clip-path="url(#clip0_26_82)">
        <path fill-rule="evenodd" clip-rule="evenodd"
              d="M8.00002 12.7266C7.09167 12.724 6.22125 12.362 5.57895 11.7197C4.93665 11.0774 4.57468 10.207 4.57214 9.29868V8.05633C4.5718 7.95957 4.53316 7.86689 4.46469 7.79853C4.39621 7.73018 4.30346 7.69171 4.2067 7.69154H3.3716C2.88264 7.69154 2.88264 8.49511 3.3716 8.49511H3.81038V9.29868C3.81359 10.343 4.20539 11.3487 4.90946 12.12C5.61353 12.8912 6.57946 13.3728 7.61914 13.4709V15.2383H6.46107C5.97597 15.2383 5.97597 16 6.46107 16H9.54025C10.0254 16 10.0254 15.2383 9.54025 15.2383H8.38218V13.4709C9.42186 13.3728 10.3878 12.8912 11.0919 12.12C11.7959 11.3487 12.1877 10.343 12.1909 9.29868V8.49254H12.6297C13.1187 8.49254 13.1187 7.68896 12.6297 7.68896H11.7933C11.6966 7.68913 11.604 7.72762 11.5356 7.796C11.4672 7.86437 11.4287 7.95706 11.4285 8.05376V9.29611C11.4286 10.0784 11.1596 10.8368 10.6668 11.4443C10.514 11.6346 10.3415 11.8082 10.1521 11.9622C9.54391 12.4568 8.78391 12.7267 8.00002 12.7266Z"
              fill="url(#paint0_linear_26_82)"/>
        <path fill-rule="evenodd" clip-rule="evenodd"
              d="M6.85738 10.8195C6.6207 10.6427 6.42842 10.4132 6.29576 10.1492C6.1631 9.88523 6.0937 9.594 6.09305 9.29856V2.26909C6.09288 2.17239 6.0544 2.0797 5.98602 2.01133C5.91765 1.94295 5.82496 1.90447 5.72826 1.9043H5.69609C5.5994 1.90447 5.50671 1.94295 5.43834 2.01133C5.36996 2.0797 5.33147 2.17239 5.3313 2.26909V9.29856C5.33071 9.64916 5.39934 9.99642 5.53325 10.3204C5.66716 10.6444 5.86372 10.9388 6.11166 11.1867C6.3596 11.4346 6.65404 11.6311 6.97808 11.7649C7.30213 11.8988 7.64941 11.9673 8.00001 11.9666L8.06434 11.5877L8.00001 11.2017C7.58722 11.2011 7.18595 11.0655 6.85738 10.8156V10.8195Z"
              fill="url(#paint1_linear_26_82)"/>
        <path fill-rule="evenodd" clip-rule="evenodd"
              d="M6.85736 9.29864C6.85807 9.53473 6.93161 9.76485 7.06794 9.9576C7.20427 10.1503 7.39675 10.2963 7.61911 10.3756C7.74146 10.4187 7.87028 10.4405 7.99999 10.44L8.05339 10.054L7.99999 9.67823C7.89903 9.67806 7.80225 9.63788 7.73086 9.56649C7.65946 9.4951 7.61928 9.39832 7.61911 9.29736V1.90438C7.61982 1.66829 7.69336 1.43818 7.82969 1.24543C7.96602 1.05268 8.1585 0.906688 8.38086 0.827375C8.50321 0.784298 8.63204 0.762537 8.76174 0.763038V0C8.25708 0.00135843 7.77349 0.202434 7.41664 0.55928C7.05979 0.916127 6.85872 1.39972 6.85736 1.90438V9.29864Z"
              fill="url(#paint2_linear_26_82)"/>
        <path fill-rule="evenodd" clip-rule="evenodd"
              d="M8.38088 9.29869C8.38071 9.39965 8.34052 9.49643 8.26913 9.56782C8.19774 9.63921 8.10096 9.6794 8 9.67957V10.4413C8.30278 10.4405 8.59292 10.3198 8.80702 10.1057C9.02112 9.89161 9.14178 9.60147 9.14263 9.29869V6.34755C9.14229 6.25096 9.10372 6.15844 9.03537 6.0902C8.96701 6.02197 8.87442 5.98357 8.77784 5.9834H8.74567C8.64897 5.98357 8.55628 6.02206 8.48791 6.09043C8.41953 6.15881 8.38105 6.25149 8.38088 6.34819V9.29869Z"
              fill="#ED1C24"/>
        <path fill-rule="evenodd" clip-rule="evenodd"
              d="M9.90438 9.29864C9.90285 9.80325 9.70172 10.2867 9.34491 10.6436C8.9881 11.0004 8.5046 11.2015 8 11.203V11.9667C8.70648 11.9647 9.38343 11.6831 9.88299 11.1836C10.3825 10.684 10.6641 10.0071 10.6661 9.30057V1.90438C10.666 1.39936 10.4653 0.915071 10.1082 0.557968C9.75106 0.200865 9.26677 0.000170529 8.76175 0L8.69741 0.380232L8.76175 0.761752C8.89104 0.761244 9.01944 0.783008 9.14134 0.826089C9.36415 0.905262 9.55706 1.05136 9.69365 1.24438C9.83023 1.4374 9.90384 1.66792 9.90438 1.90438V9.29864Z"
              fill="url(#paint3_linear_26_82)"/>
    </g>
    <defs>
        <linearGradient id="paint0_linear_26_82" x1="7.98265" y1="9.56053" x2="7.90866" y2="15.9589"
                        gradientUnits="userSpaceOnUse">
            <stop stop-color="#F16122"/>
            <stop offset="1" stop-color="#FCD602"/>
        </linearGradient>
        <linearGradient id="paint1_linear_26_82" x1="7.09414" y1="12.0425" x2="5.4381" y2="4.68237"
                        gradientUnits="userSpaceOnUse">
            <stop stop-color="#FCD602"/>
            <stop offset="1" stop-color="#F16122"/>
        </linearGradient>
        <linearGradient id="paint2_linear_26_82" x1="8.55779" y1="10.1492" x2="8.00449" y2="6.11331"
                        gradientUnits="userSpaceOnUse">
            <stop stop-color="#ED1C24"/>
            <stop offset="1" stop-color="#ED1651"/>
        </linearGradient>
        <linearGradient id="paint3_linear_26_82" x1="10.2576" y1="1.14327" x2="8.61185" y2="11.9841"
                        gradientUnits="userSpaceOnUse">
            <stop stop-color="#ED1651"/>
            <stop offset="0.53" stop-color="#F16122"/>
            <stop offset="1" stop-color="#FCD602"/>
        </linearGradient>
        <clipPath id="clip0_26_82">
            <rect width="16" height="16" fill="white"/>
        </clipPath>
    </defs>
</svg>
