<svg width="512" height="512" viewBox="0 0 512 512" fill="none" xmlns="http://www.w3.org/2000/svg">
<path d="M370.562 0H141.438C63.324 0 0 63.324 0 141.438V370.562C0 448.676 63.324 512 141.438 512H370.562C448.676 512 512 448.676 512 370.562V141.438C512 63.324 448.676 0 370.562 0Z" fill="#110F05"/>
<path fill-rule="evenodd" clip-rule="evenodd" d="M253.739 339.374L180.453 183.058C173.327 167.857 159.077 158.736 142.282 158.736H128.287L230.837 377.63C235.163 386.751 243.561 392.071 253.485 392.071C263.409 392.071 272.061 386.751 276.133 377.63L396.751 119.467H382.755C365.96 119.467 351.71 128.587 344.585 143.788L253.23 339.121L253.739 339.374ZM112.255 252.729L94.9512 289.971C90.3708 299.598 81.2099 305.425 70.7767 305.425H34.1333V276.797H64.6695L92.1521 218.273C95.9691 210.166 103.603 205.352 112.51 205.352C121.416 205.352 129.05 210.166 132.867 218.273L186.305 333.547H176.89C160.095 333.547 145.59 324.427 138.72 309.226L112.764 252.729H112.255ZM395.478 252.729L412.782 289.971C417.362 299.598 426.523 305.425 436.957 305.425H473.6V276.797H443.064L415.581 218.273C411.764 210.166 404.13 205.352 395.224 205.352C386.317 205.352 378.683 210.166 374.866 218.273L321.428 333.547H330.843C347.638 333.547 362.143 324.427 369.014 309.226L394.969 252.729H395.478Z" fill="#F6CD6C"/>
<path fill-rule="evenodd" clip-rule="evenodd" d="M411.255 286.423L412.782 289.97C417.362 299.598 426.523 305.425 436.957 305.425H473.6V276.796H443.064L438.483 266.662L411.255 286.423ZM64.6695 276.796H34.1333V305.425H70.7767C81.4644 305.425 90.6253 299.598 94.9512 289.97L96.478 286.423L69.2499 266.662L64.6695 276.796Z" fill="#F74755"/>
<path fill-rule="evenodd" clip-rule="evenodd" d="M351.965 268.186L321.683 333.55H331.098C347.893 333.55 362.398 324.429 369.269 309.228L395.224 252.731L411.001 286.427L438.229 266.665L416.854 221.062L351.71 268.186H351.965ZM185.797 333.55L155.515 268.186L90.3714 221.062L68.9961 266.665L96.2242 286.427L112.001 252.731L137.957 309.228C145.082 324.429 159.332 333.55 176.127 333.55H185.543H185.797ZM191.904 294.534L231.092 377.886C235.418 387.006 243.816 392.327 253.74 392.327C263.664 392.327 272.316 387.006 276.388 377.886L315.321 294.787L253.74 339.377L191.904 294.534Z" fill="#F6894F"/>
<path fill-rule="evenodd" clip-rule="evenodd" d="M155.515 268.437L132.358 218.527C128.541 210.42 120.907 205.606 112.001 205.606C103.095 205.606 95.4605 210.42 91.6434 218.527L90.3711 221.314L155.515 268.437ZM375.121 218.527L351.964 268.437L417.108 221.314L415.836 218.527C412.019 210.42 404.385 205.606 395.479 205.606C386.572 205.606 378.938 210.42 375.121 218.527ZM315.321 295.038L358.326 202.819L296.745 247.409L253.74 339.628L210.48 247.155L148.644 202.312L191.904 294.785L253.74 339.628L315.321 295.038Z" fill="#F7AF5F"/>
</svg>
