<svg width="144" height="144" viewBox="0 0 144 144" fill="none" xmlns="http://www.w3.org/2000/svg">
<path d="M104.279 0.192383H40.0103C18.0993 0.192383 0.336914 17.9547 0.336914 39.8657V104.135C0.336914 126.046 18.0993 143.808 40.0103 143.808H104.279C126.19 143.808 143.953 126.046 143.953 104.135V39.8657C143.953 17.9547 126.19 0.192383 104.279 0.192383Z" fill="#110F05"/>
<path fill-rule="evenodd" clip-rule="evenodd" d="M30.2217 80.9414L34.8158 71.1013L39.5427 60.9524C38.4532 59.464 36.746 58.5975 34.8158 58.5975C32.4737 58.5975 30.4662 59.8758 29.4753 61.9991L22.2562 77.4669H14.1748V85.0164H23.8175C26.6271 85.0164 29.0335 83.485 30.2217 80.9371V80.9414ZM42.7298 54.1064L46.14 46.7886C45.0762 46.4626 43.9437 46.291 42.7727 46.291H39.0838L42.7341 54.1064H42.7298Z" fill="#F74755"/>
<path fill-rule="evenodd" clip-rule="evenodd" d="M34.8159 71.1016L41.6877 86.059C43.5407 90.0911 47.3369 92.5232 51.7765 92.5232H54.2429L40.1606 62.0036C39.9847 61.6262 39.7788 61.2744 39.5429 60.9527L34.8159 71.1016ZM42.73 54.1067L66.1505 104.281C66.3478 104.701 66.5795 105.091 66.8411 105.452L72.1429 94.0674L52.8317 52.6912C51.4505 49.7314 49.0398 47.6725 46.1401 46.7803L42.73 54.0981V54.1067Z" fill="#F6894F"/>
<path fill-rule="evenodd" clip-rule="evenodd" d="M96.2194 42.3188L72.8032 92.6515L72.1426 94.0713L66.8408 105.456C68.0676 107.133 69.9764 108.102 72.1426 108.102C74.7721 108.102 77.0283 106.665 78.1393 104.28L109.963 35.8975H106.291C101.873 35.8975 98.0896 38.3082 96.2237 42.3188H96.2194ZM104.129 62.0032L90.0469 92.5228H92.5133C96.9529 92.5228 100.749 90.0907 102.602 86.0586L109.474 71.1012L114.197 60.9609C113.103 59.4681 111.404 58.6017 109.474 58.6017C107.132 58.6017 105.111 59.8756 104.129 62.0032Z" fill="#F7AF5F"/>
<path fill-rule="evenodd" clip-rule="evenodd" d="M109.474 71.1016L114.068 80.9417C115.256 83.4896 117.663 85.021 120.472 85.021H130.115V77.4715H122.029L114.81 62.0037C114.634 61.6305 114.428 61.2787 114.192 60.957L109.47 71.0973L109.474 71.1016Z" fill="#F6CD6C"/>
</svg>
