<svg width="379" height="96" viewBox="0 0 379 96" fill="none" xmlns="http://www.w3.org/2000/svg">
    <path fill-rule="evenodd" clip-rule="evenodd"
          d="M29.9275 76.2801C24.4822 76.2643 19.2644 74.0941 15.4139 70.2437C11.5635 66.3932 9.39333 61.1754 9.3775 55.7301V48.2901C9.37751 47.711 9.14815 47.1555 8.7396 46.7451C8.33106 46.3346 7.77659 46.1027 7.1975 46.1001H2.1975C-0.7325 46.1001 -0.7325 50.9201 2.1975 50.9201H4.8175V55.7301C4.83718 61.9887 7.186 68.0158 11.4064 72.6373C15.6268 77.2588 21.4164 80.1438 27.6475 80.7301V91.3301H20.6975C17.7875 91.3301 17.7875 95.9001 20.6975 95.9001H39.1575C42.0675 95.9001 42.0675 91.3301 39.1575 91.3301H32.1575V80.7401C38.3886 80.1538 44.1782 77.2688 48.3986 72.6473C52.619 68.0258 54.9678 61.9987 54.9875 55.7401V50.9201H57.6175C60.5475 50.9201 60.5475 46.1001 57.6175 46.1001H52.6175C52.0384 46.1027 51.4839 46.3346 51.0754 46.7451C50.6669 47.1555 50.4375 47.711 50.4375 48.2901V55.7301C50.4217 61.1685 48.2571 66.3803 44.4152 70.2296C40.5734 74.0789 35.3659 76.2537 29.9275 76.2801Z"
          fill="url(#paint0_linear_18_20)"/>
    <path fill-rule="evenodd" clip-rule="evenodd"
          d="M23.0775 64.85C21.661 63.7881 20.5107 62.4114 19.7176 60.8287C18.9245 59.2459 18.5102 57.5004 18.5075 55.73V13.6C18.5075 13.0209 18.2782 12.4654 17.8696 12.055C17.4611 11.6446 16.9066 11.4127 16.3275 11.41H16.1375C15.5645 11.4231 15.0191 11.6592 14.6176 12.0682C14.216 12.4773 13.99 13.0269 13.9875 13.6V55.73C13.9913 58.752 14.8508 61.7111 16.4666 64.2648C18.0823 66.8186 20.3883 68.8625 23.1175 70.16C24.5613 70.853 26.1024 71.3217 27.6875 71.55C28.4425 71.6594 29.2046 71.7129 29.9675 71.71L30.3375 69.44L29.9675 67.15C27.4942 67.1523 25.0883 66.3444 23.1175 64.85H23.0775Z"
          fill="url(#paint1_linear_18_20)"/>
    <path fill-rule="evenodd" clip-rule="evenodd"
          d="M23.0775 55.73C23.0775 56.6296 23.2547 57.5203 23.5989 58.3514C23.9432 59.1825 24.4477 59.9376 25.0838 60.5737C25.7199 61.2098 26.475 61.7143 27.3061 62.0586C28.1372 62.4028 29.0279 62.58 29.9275 62.58L30.2475 60.27L29.9275 58C29.3219 57.9974 28.742 57.7549 28.3147 57.3257C27.8874 56.8966 27.6475 56.3156 27.6475 55.71V11.41C27.6598 10.0032 28.1037 8.6341 28.9192 7.48773C29.7347 6.34136 30.8825 5.47299 32.2075 5C32.9424 4.73805 33.7173 4.60608 34.4975 4.61V0C31.4737 0.0105256 28.5766 1.21571 26.4375 3.35294C24.2984 5.49017 23.0907 8.38621 23.0775 11.41V55.73Z"
          fill="url(#paint2_linear_18_20)"/>
    <path fill-rule="evenodd" clip-rule="evenodd"
          d="M32.2075 55.7301C32.2023 56.3322 31.96 56.9081 31.5333 57.3329C31.1066 57.7578 30.5297 57.9975 29.9275 58.0001V62.5601C31.7426 62.5548 33.4819 61.8314 34.7654 60.5479C36.0488 59.2644 36.7722 57.5252 36.7775 55.7101V38.0001C36.7749 37.421 36.543 36.8665 36.1325 36.458C35.7221 36.0494 35.1666 35.8201 34.5875 35.8201H34.3975C33.8184 35.8201 33.2629 36.0494 32.8525 36.458C32.442 36.8665 32.2102 37.421 32.2075 38.0001V55.7301Z"
          fill="#ED1C24"/>
    <path fill-rule="evenodd" clip-rule="evenodd"
          d="M41.3375 55.73C41.3296 58.7547 40.1253 61.6533 37.9875 63.7929C35.8497 65.9326 32.9521 67.1395 29.9275 67.15V71.71C34.171 71.71 38.2406 70.0243 41.2412 67.0238C44.2418 64.0232 45.9275 59.9535 45.9275 55.71V11.41C45.9275 9.90913 45.6314 8.42297 45.0561 7.03668C44.4808 5.6504 43.6377 4.39124 42.575 3.33133C41.5123 2.27142 40.2509 1.43159 38.8631 0.859948C37.4753 0.288309 35.9884 -0.00390686 34.4875 3.94427e-05L34.0975 2.28004L34.4975 4.57004C36.3116 4.57004 38.0514 5.29068 39.3341 6.57343C40.6169 7.85618 41.3375 9.59596 41.3375 11.41V55.73Z"
          fill="url(#paint3_linear_18_20)"/>
    <path fill-rule="evenodd" clip-rule="evenodd"
          d="M107.708 60.25L130.758 15.59H139.758L107.758 78.17L75.7575 15.59H84.8875L107.708 60.25ZM167.708 14.68C163.482 14.6185 159.289 15.4215 155.385 17.0397C151.482 18.6579 147.95 21.0571 145.008 24.09C141.974 27.0319 139.571 30.5611 137.947 34.4621C136.322 38.3632 135.509 42.5544 135.558 46.78C135.497 51.004 136.302 55.1958 137.924 59.0965C139.546 62.9973 141.95 66.5243 144.988 69.46C147.965 72.4431 151.502 74.8097 155.396 76.4244C159.289 78.0392 163.463 78.8703 167.678 78.8703C171.892 78.8703 176.066 78.0392 179.96 76.4244C183.853 74.8097 187.39 72.4431 190.368 69.46C193.398 66.5197 195.796 62.9914 197.414 59.0914C199.032 55.1914 199.836 51.0019 199.778 46.78C199.848 42.5586 199.052 38.3676 197.441 34.4652C195.829 30.5629 193.436 27.0319 190.408 24.09C187.467 21.0596 183.939 18.6618 180.039 17.0437C176.139 15.4256 171.949 14.6212 167.728 14.68H167.708ZM167.708 70.73C164.552 70.7432 161.425 70.1315 158.507 68.93C155.59 67.7286 152.939 65.9613 150.707 63.73C148.476 61.4988 146.709 58.8478 145.507 55.93C144.306 53.0122 143.694 49.8854 143.708 46.73C143.694 43.5746 144.306 40.4477 145.507 37.5299C146.709 34.6122 148.476 31.9612 150.707 29.7299C152.939 27.4987 155.59 25.7314 158.507 24.5299C161.425 23.3285 164.552 22.7168 167.708 22.73C170.861 22.6749 173.993 23.2677 176.909 24.4718C179.824 25.6758 182.462 27.4655 184.658 29.73C186.928 31.9321 188.721 34.5777 189.925 37.5022C191.129 40.4268 191.719 43.5678 191.658 46.73C191.711 49.8836 191.117 53.0148 189.913 55.9301C188.709 58.8454 186.921 61.4829 184.658 63.68C182.462 65.9445 179.824 67.7341 176.909 68.9382C173.993 70.1423 170.861 70.7351 167.708 70.68V70.73ZM219.988 74.19C217.848 72.842 215.869 71.2552 214.088 69.46C211.055 66.5221 208.656 62.994 207.039 59.0933C205.423 55.1925 204.622 51.002 204.688 46.78C204.637 42.554 205.449 38.3622 207.073 34.4608C208.698 30.5594 211.102 27.0305 214.138 24.09C217.111 21.1012 220.646 18.7295 224.539 17.1111C228.432 15.4928 232.606 14.6597 236.823 14.6597C241.039 14.6597 245.213 15.4928 249.106 17.1111C252.999 18.7295 256.534 21.1012 259.508 24.09C262.538 27.0305 264.932 30.5612 266.544 34.4639C268.156 38.3665 268.95 42.5583 268.878 46.78C268.936 51.0019 268.132 55.1914 266.514 59.0914C264.896 62.9914 262.498 66.5197 259.468 69.46C256.527 72.4904 252.999 74.8881 249.099 76.5063C245.199 78.1244 241.009 78.9287 236.788 78.87C231.738 78.9294 226.75 77.7663 222.247 75.48L222.938 76.48C223.493 77.2925 224.167 78.0172 224.938 78.63C226.701 79.9531 228.853 80.6562 231.058 80.63H242.808C246.897 80.5979 250.876 81.9514 254.098 84.47C255.593 85.6291 256.878 87.0362 257.898 88.63L259.718 91.63L255.828 94.03L252.828 95.84L250.988 93C250.441 92.2003 249.765 91.4973 248.988 90.92C247.236 89.5803 245.082 88.8751 242.878 88.92H231.108C227.022 88.9395 223.054 87.5557 219.868 85C218.332 83.854 217.012 82.4457 215.967 80.84L214.138 77.74L218.068 75.44L219.967 74.18L219.988 74.19ZM236.788 70.73C239.941 70.7851 243.073 70.1923 245.989 68.9882C248.904 67.7841 251.542 65.9945 253.738 63.73C256.004 61.5358 257.796 58.8988 259 55.9828C260.204 53.0668 260.796 49.9343 260.738 46.78C260.799 43.6178 260.209 40.4768 259.005 37.5522C257.801 34.6277 256.008 31.9821 253.738 29.78C249.238 25.2886 243.14 22.7661 236.783 22.7661C230.425 22.7661 224.327 25.2886 219.828 29.78C217.554 31.9799 215.759 34.6251 214.555 37.5501C213.351 40.4752 212.763 43.6173 212.828 46.78C212.769 49.9343 213.361 53.0668 214.565 55.9828C215.769 58.8988 217.561 61.5358 219.828 63.73C222.03 66.0002 224.675 67.7932 227.6 68.9974C230.524 70.2016 233.665 70.7914 236.828 70.73H236.788ZM342.698 70H378.988V78.18H334.518V15.59H342.698V70ZM296.608 33.51L319.658 78.17H328.658L296.658 15.59L264.668 78.17H273.798L296.608 33.51Z"
          fill="url(#paint4_linear_18_20)"/>
    <defs>
        <linearGradient id="paint0_linear_18_20" x1="29.8275" y1="57.3001" x2="29.3775" y2="95.6501"
                        gradientUnits="userSpaceOnUse">
            <stop stop-color="#F16122"/>
            <stop offset="1" stop-color="#FCD602"/>
        </linearGradient>
        <linearGradient id="paint1_linear_18_20" x1="24.4975" y1="72.18" x2="14.5675" y2="28.06"
                        gradientUnits="userSpaceOnUse">
            <stop stop-color="#FCD602"/>
            <stop offset="1" stop-color="#F16122"/>
        </linearGradient>
        <linearGradient id="paint2_linear_18_20" x1="33.2675" y1="60.83" x2="29.9575" y2="36.64"
                        gradientUnits="userSpaceOnUse">
            <stop stop-color="#ED1C24"/>
            <stop offset="1" stop-color="#ED1651"/>
        </linearGradient>
        <linearGradient id="paint3_linear_18_20" x1="43.4575" y1="6.85004" x2="33.5975" y2="71.83"
                        gradientUnits="userSpaceOnUse">
            <stop stop-color="#ED1651"/>
            <stop offset="0.53" stop-color="#F16122"/>
            <stop offset="1" stop-color="#FCD602"/>
        </linearGradient>
        <linearGradient id="paint4_linear_18_20" x1="227.348" y1="78.87" x2="227.348" y2="14.68"
                        gradientUnits="userSpaceOnUse">
            <stop stop-color="#F68B1F"/>
            <stop offset="1" stop-color="#FCD602"/>
        </linearGradient>
    </defs>
</svg>
